# xmcd CD database file
#
# Track frame offsets:
#	150
#	26115
#	44796
#	66836
#	89027
#	107793
#	123678
#	144855
#	159975
#	174666
#	196660
#	213560
#	245710
#
# Disc length: 3498 seconds
#
# Revision: 1
# Processed by: cddbd v1.5.1PL0 Copyright (c) Steve Scherf et al.
# Submitted via: CDex 1.51
#
DISCID=c50da80d
DTITLE=Variou - Blast From the Future
DYEAR=2000
DGENRE=Jazz
TTITLE0=Millenium Swing - Micheal Paulo
TTITLE1=Turning - Suzanne Ciani
TTITLE2=Strength of Stones - Deborah Martin
TTITLE3=Not Just Another Pretty Bass - Jim Ferguson
TTITLE4=Highlands - Lynne Arriale Trio
TTITLE5=Indestructible - Omara Portundo and Chucho Valdes
TTITLE6=Ere Mela Mela - Mahmoud Ahmed
TTITLE7=Tell me the Truth - The Westerleys
TTITLE8=Girl From Memphis - Kerry Kearney
TTITLE9=Into the West - Tim OBrien
TTITLE10=Revival - Sam Harris
TTITLE11=Om Namah Shivaya - Krishna Das
TTITLE12=A Singer Must Be Free - Sarah Brightman
EXTD=YEAR: 2000
EXTT0=
EXTT1=
EXTT2=
EXTT3=
EXTT4=
EXTT5=
EXTT6=
EXTT7=
EXTT8=
EXTT9=
EXTT10=
EXTT11=
EXTT12=
PLAYORDER=
